<svg xmlns="http://www.w3.org/2000/svg" viewBox="0 0 64 64"><g id="Layer_9" data-name="Layer 9"><path d="M51.35,25.14c5.76-4.43,2.53-13.87-4.77-13.84a7.68,7.68,0,0,0-6.48,3.53,21.44,21.44,0,0,0-6.43-1.45v-2.5a6.47,6.47,0,0,1,3.12,1.73,1.5,1.5,0,1,0,2.12-2.12,9.53,9.53,0,0,0-13.47,0,1.5,1.5,0,0,0,2.12,2.12,6.49,6.49,0,0,1,3.11-1.73v2.5A21,21,0,0,0,24,14.94a7.78,7.78,0,0,0-6.56-3.64c-7.47,0-10.57,9.72-4.52,14C9,32.69,10.44,42.89,16,48.89l-4.86,4.85a1.5,1.5,0,0,0,2.13,2.12L18.09,51c7.62,7,20.56,7,28.17,0l4.85,4.85a1.5,1.5,0,0,0,2.13-2.12l-4.86-4.85C54,42.84,55.35,32.52,51.35,25.14ZM46.58,14.3a4.78,4.78,0,0,1,3.23,8.24,21.68,21.68,0,0,0-7-6.39A4.78,4.78,0,0,1,46.58,14.3ZM12.67,19.05a4.77,4.77,0,0,1,8.62-2.75,21.58,21.58,0,0,0-6.89,6.42A4.77,4.77,0,0,1,12.67,19.05ZM40.38,38.42H32.17a1.5,1.5,0,0,1-1.5-1.5V25.23a1.5,1.5,0,0,1,3,0V35.42h6.71A1.5,1.5,0,0,1,40.38,38.42Z"/></g></svg>