<?xml version="1.0" encoding="UTF-8" standalone="no"?> <svg width="64" height="64" viewBox="0 0 64 64" fill="none" xmlns="http://www.w3.org/2000/svg">
<path d="M61 14H3V50H61V14Z" fill="#5EAC24"/>
<path d="M61 32H3V50H61V32Z" fill="#4E901E"/>
<path d="M57 22V42C55.9391 42 54.9217 42.4214 54.1716 43.1716C53.4214 43.9217 53 44.9391 53 46H11C11 44.9391 10.5786 43.9217 9.82843 43.1716C9.07828 42.4214 8.06087 42 7 42V22C8.06087 22 9.07828 21.5786 9.82843 20.8284C10.5786 20.0783 11 19.0609 11 18H53C53 19.0609 53.4214 20.0783 54.1716 20.8284C54.9217 21.5786 55.9391 22 57 22Z" fill="#91DC5A"/>
<path d="M7 32V42C8.06087 42 9.07828 42.4214 9.82843 43.1716C10.5786 43.9217 11 44.9391 11 46H53C53 44.9391 53.4214 43.9217 54.1716 43.1716C54.9217 42.4214 55.9391 42 57 42V32H7Z" fill="#7ED63E"/>
<path d="M32 42C38.6274 42 44 37.5228 44 32C44 26.4772 38.6274 22 32 22C25.3726 22 20 26.4772 20 32C20 37.5228 25.3726 42 32 42Z" fill="#F1F2F2"/>
<path d="M52 33H48C47.7348 33 47.4804 32.8946 47.2929 32.7071C47.1054 32.5196 47 32.2652 47 32C47 31.7348 47.1054 31.4804 47.2929 31.2929C47.4804 31.1054 47.7348 31 48 31H52C52.2652 31 52.5196 31.1054 52.7071 31.2929C52.8946 31.4804 53 31.7348 53 32C53 32.2652 52.8946 32.5196 52.7071 32.7071C52.5196 32.8946 52.2652 33 52 33Z" fill="#F1F2F2"/>
<path d="M16 33H12C11.7348 33 11.4804 32.8946 11.2929 32.7071C11.1054 32.5196 11 32.2652 11 32C11 31.7348 11.1054 31.4804 11.2929 31.2929C11.4804 31.1054 11.7348 31 12 31H16C16.2652 31 16.5196 31.1054 16.7071 31.2929C16.8946 31.4804 17 31.7348 17 32C17 32.2652 16.8946 32.5196 16.7071 32.7071C16.5196 32.8946 16.2652 33 16 33Z" fill="#F1F2F2"/>
<path d="M35 35C34.7348 35 34.4804 35.1054 34.2929 35.2929C34.1054 35.4804 34 35.7348 34 36H33C32.3817 35.9974 31.7794 35.8039 31.2753 35.4459C30.7712 35.0879 30.3901 34.5829 30.184 34H33C33.2652 34 33.5196 33.8946 33.7071 33.7071C33.8946 33.5196 34 33.2652 34 33C34 32.7348 33.8946 32.4804 33.7071 32.2929C33.5196 32.1054 33.2652 32 33 32H30V31H33C33.2652 31 33.5196 30.8946 33.7071 30.7071C33.8946 30.5196 34 30.2652 34 30C34 29.7348 33.8946 29.4804 33.7071 29.2929C33.5196 29.1054 33.2652 29 33 29H30.184C30.3901 28.4171 30.7712 27.9121 31.2753 27.5541C31.7794 27.1961 32.3817 27.0026 33 27H34C34 27.2652 34.1054 27.5196 34.2929 27.7071C34.4804 27.8946 34.7348 28 35 28C35.2652 28 35.5196 27.8946 35.7071 27.7071C35.8946 27.5196 36 27.2652 36 27C36 26.4696 35.7893 25.9609 35.4142 25.5858C35.0391 25.2107 34.5304 25 34 25H33C31.8478 25.0015 30.7313 25.4001 29.8387 26.1287C28.9462 26.8573 28.3321 27.8714 28.1 29H26C25.7348 29 25.4804 29.1054 25.2929 29.2929C25.1054 29.4804 25 29.7348 25 30C25 30.2652 25.1054 30.5196 25.2929 30.7071C25.4804 30.8946 25.7348 31 26 31H28V32H26C25.7348 32 25.4804 32.1054 25.2929 32.2929C25.1054 32.4804 25 32.7348 25 33C25 33.2652 25.1054 33.5196 25.2929 33.7071C25.4804 33.8946 25.7348 34 26 34H28.1C28.3321 35.1286 28.9462 36.1427 29.8387 36.8713C30.7313 37.5999 31.8478 37.9985 33 38H34C34.5304 38 35.0391 37.7893 35.4142 37.4142C35.7893 37.0391 36 36.5304 36 36C36 35.7348 35.8946 35.4804 35.7071 35.2929C35.5196 35.1054 35.2652 35 35 35Z" fill="#4E901E"/>
</svg>
