<?xml version="1.0" encoding="UTF-8" standalone="no"?> <svg xmlns="http://www.w3.org/2000/svg" viewBox="0 0 48 48"><defs><style>.cls-1{fill:#eaeff0;}.cls-2{fill:#d9e1e2;}.cls-3{fill:#8fa5a5;}.cls-4{fill:#7b8c8c;}</style></defs><g id="Stove"><rect class="cls-1" x="6" y="7" width="36" height="37" rx="4"/><path class="cls-2" d="M38,7H10a4,4,0,0,0-4,4v6H42V11A4,4,0,0,0,38,7Z"/><path class="cls-3" d="M11,7V5a1,1,0,0,1,1-1h8a1,1,0,0,1,1,1V7Z"/><path class="cls-3" d="M27,7V5a1,1,0,0,1,1-1h8a1,1,0,0,1,1,1V7Z"/><circle class="cls-4" cx="36" cy="12" r="2"/><circle class="cls-4" cx="28" cy="12" r="2"/><circle class="cls-4" cx="12" cy="12" r="2"/><circle class="cls-4" cx="20" cy="12" r="2"/><rect class="cls-3" x="11" y="26" width="26" height="13" rx="2"/><path d="M38,6V5a2,2,0,0,0-2-2H28a2,2,0,0,0-2,2V6H22V5a2,2,0,0,0-2-2H12a2,2,0,0,0-2,2V6a5.006,5.006,0,0,0-5,5V40a5.006,5.006,0,0,0,5,5H38a5.006,5.006,0,0,0,5-5V11A5.006,5.006,0,0,0,38,6ZM28,5h8V6H28ZM12,5h8V6H12ZM7,11a3,3,0,0,1,3-3H38a3,3,0,0,1,3,3v5H7ZM41,40a3,3,0,0,1-3,3H10a3,3,0,0,1-3-3V18H41Z"/><path d="M36,9a3,3,0,1,0,3,3A3,3,0,0,0,36,9Zm0,4a1,1,0,1,1,1-1A1,1,0,0,1,36,13Z"/><path d="M28,9a3,3,0,1,0,3,3A3,3,0,0,0,28,9Zm0,4a1,1,0,1,1,1-1A1,1,0,0,1,28,13Z"/><path d="M12,9a3,3,0,1,0,3,3A3,3,0,0,0,12,9Zm0,4a1,1,0,1,1,1-1A1,1,0,0,1,12,13Z"/><path d="M20,9a3,3,0,1,0,3,3A3,3,0,0,0,20,9Zm0,4a1,1,0,1,1,1-1A1,1,0,0,1,20,13Z"/><path d="M13,40H35a3,3,0,0,0,3-3V28a3,3,0,0,0-3-3H13a3,3,0,0,0-3,3v9A3,3,0,0,0,13,40ZM12,28a1,1,0,0,1,1-1H35a1,1,0,0,1,1,1v9a1,1,0,0,1-1,1H13a1,1,0,0,1-1-1Z"/><path d="M12,23H36a1,1,0,0,0,0-2H12a1,1,0,0,0,0,2Z"/></g></svg>