<?xml version="1.0" encoding="UTF-8"?><svg xmlns="http://www.w3.org/2000/svg" viewBox="0 0 64 64"><g id="Flat"><path d="M36,10.344c-.311-.046-.629-.061-.949-.045-.015-.054-.017-.109-.034-.163-.671-2.148-2.702-3.477-4.841-3.365-.015-.054-.017-.109-.034-.163-.794-2.542-3.49-3.961-6.02-3.17s-3.937,3.492-3.143,6.034c.017,.054,.047,.1,.065,.153-.98,.606-1.697,1.537-2.045,2.602l1,16.772,22-5-6-13.656Z" style="fill:#038443;"/><path d="M30.953,21.696l-2.415-7.586,.661-.812c.379-.466,.829-.865,1.337-1.188,.466-.296,.604-.913,.308-1.38-.296-.466-.915-.606-1.38-.308-.619,.393-1.164,.882-1.643,1.433l-1.257-3.949c-.168-.525-.729-.817-1.257-.649-.525,.168-.816,.73-.649,1.257l1.264,3.971c-.625-.165-1.268-.262-1.919-.263h-.002c-.552,0-.999,.446-1,.998,0,.553,.446,1.001,.998,1.002,.538,0,1.069,.078,1.58,.23l1.07,.317,2.398,7.534c.136,.425,.529,.696,.953,.696,.101,0,.202-.015,.304-.047,.525-.168,.816-.73,.649-1.257Z" style="fill:#057239;"/><path d="M61,32v3c0,12.15-9.85,22-22,22h-14c-12.15,0-22-9.85-22-22v-3H61Z" style="fill:#f2f2f2;"/><rect x="23" y="57" width="18" height="4" style="fill:#dddcdb;"/><path d="M61,32c0,1.06-2.99,2.02-7.86,2.74-3.24,.47-7.3,.84-11.89,1.05-1.8,.08-3.68,.14-5.63,.18-1.19,.02-2.39,.03-3.62,.03-3.73,0-7.28-.1-10.55-.27-1.8-.1-3.52-.22-5.12-.37-.15-.01-.29-.02-.44-.03-1.52-.14-2.94-.3-4.24-.48-.04,0-.07-.01-.11-.01-5.27-.73-8.54-1.73-8.54-2.84,0-.95,2.41-1.82,6.45-2.51,5.11-.88,12.8-1.44,21.47-1.48,.36-.01,.72-.01,1.08-.01,4.84,0,9.4,.16,13.41,.45,1.25,.09,2.44,.19,3.57,.3,7.28,.73,12.02,1.91,12.02,3.25Z" style="fill:#d1d1d1;"/><path d="M35.62,35.97c-1.19,.02-2.39,.03-3.62,.03-7.99,0-15.22-.45-20.46-1.16-.54-1.12-.93-1.95-.98-2.05-.49-1.1-.86-2.2-1.11-3.3-.07-.32-.13-.65-.18-.97-.25-1.58-.24-3.13,0-4.56,.3-1.78,.12-3.62-.71-5.23-.06-.11-.11-.23-.17-.34-1.6-3.52-.46-7.49,2.56-8.86,3.02-1.37,6.76,.36,8.36,3.88,.06,.12,.1,.23,.15,.35,.68,1.68,1.94,3.03,3.49,3.97,2.08,1.27,3.97,3.25,5.31,5.76l2.66,4.52,4.7,7.96Z" style="fill:#43aa8b;"/><path d="M21.91,31.168l-3.175-6.966c.958-1.477,1.097-3.31,.483-6.119-.117-.539-.654-.883-1.189-.764-.54,.117-.882,.65-.764,1.189,.305,1.399,.359,2.384,.289,3.101l-3.621-7.945c-.229-.503-.823-.726-1.325-.495-.502,.229-.724,.822-.495,1.325l3.613,7.928c-.63-.421-1.341-1.097-2.126-2.214-.316-.451-.941-.562-1.394-.243-.451,.317-.561,.941-.243,1.394,1.536,2.186,3.122,3.356,4.943,3.654l3.183,6.984c.168,.368,.531,.585,.911,.585,.139,0,.279-.028,.414-.09,.502-.229,.724-.822,.495-1.325Z" style="fill:#379173;"/><path d="M26.28,26.09c.01-.03,.02-.07,.03-.1,.37-1.06,1.07-1.92,1.95-2.5,.18-.12,.37-.23,.56-.33-.54-1.14-.66-2.49-.21-3.78,.64-1.83,2.24-3.04,4.03-3.29-.18-.86-.15-1.77,.15-2.67,.91-2.6,3.76-3.99,6.37-3.08,.69,.24,1.28,.62,1.78,1.09,.04-.14,.06-.29,.11-.43,.9-2.61,3.75-3.99,6.36-3.09,2.61,.91,3.99,3.76,3.08,6.37-.05,.14-.12,.27-.18,.4,.68-.06,1.38,.01,2.07,.25,2.61,.91,3.99,3.76,3.09,6.36-.31,.9-.86,1.63-1.53,2.19,1.25,1.31,1.76,3.25,1.12,5.08q0,.01-.01,.02c-.45,1.28-1.37,2.26-2.49,2.82,.34,.72,.51,1.52,.47,2.35l-27.03,1.25,.28-8.91Z" style="fill:#009d54;"/><path d="M49.156,20.216c-.047,0-.094,0-.14,0-1.861,0-3.666,.466-5.289,1.346l2.657-7.653c.182-.521-.095-1.092-.616-1.272-.523-.185-1.093,.095-1.272,.616l-2.655,7.647c-.746-1.735-1.912-3.247-3.423-4.41-.44-.337-1.066-.256-1.403,.183-.336,.438-.255,1.066,.183,1.403,1.478,1.137,2.559,2.676,3.127,4.452l.456,1.427-1.864,5.369c-.182,.521,.094,1.091,.616,1.272,.108,.038,.219,.056,.328,.056,.414,0,.801-.259,.944-.672l1.861-5.359,1.253-.845c1.516-1.021,3.276-1.56,5.099-1.56,.043,0,.094,.003,.127,0,.547,0,.993-.439,1-.987,.007-.553-.436-1.006-.987-1.013Z" style="fill:#038443;"/><path d="M40.481,32.41c-.323,0-.641-.156-.833-.445-.307-.46-.183-1.08,.277-1.387,1.246-.831,2.629-1.393,4.109-1.671,.541-.101,1.065,.255,1.167,.798,.103,.543-.255,1.065-.798,1.167-1.215,.229-2.349,.689-3.369,1.37-.171,.113-.363,.168-.554,.168Z" style="fill:#038443;"/><path d="M23,36c.1-5.47,4.09-13,9-13s8.9,7.53,9,13H23Z" style="fill:#e5e4e3;"/><path d="M28,35c.02-2.19,1.8-4,4-4s3.98,1.81,4,4v1h-8v-1Z" style="fill:#f9844a;"/><path d="M53.14,34.74c-3.24,.47-7.3,.84-11.89,1.05l-.14-.99c-.07-.25-.11-.52-.11-.8,0-1.66,1.34-3,3-3,0-1.07,.56-2.02,1.41-2.55,.46-.28,1-.45,1.59-.45,.76,0,1.45,.29,1.98,.75,.63,.55,1.02,1.35,1.02,2.25,1.58,0,2.87,1.21,2.98,2.76l.16,.98Z" style="fill:#f9c74f;"/><path d="M17,33c0,.79-.31,1.51-.81,2.04-.09,.11-.19,.2-.3,.29-1.52-.14-2.94-.3-4.24-.48-.41-.51-.65-1.15-.65-1.85,0-1.66,1.34-3,3-3,1.29,0,2.39,.81,2.81,1.96,.12,.32,.19,.67,.19,1.04Z" style="fill:#bc2b3d;"/><path d="M22,34c0,.65-.21,1.24-.55,1.73-1.8-.1-3.52-.22-5.12-.37-.06-.1-.1-.21-.14-.32-.12-.32-.19-.67-.19-1.04,0-.79,.31-1.51,.81-2.04,.54-.59,1.32-.96,2.19-.96,1.66,0,3,1.34,3,3Z" style="fill:#d1303d;"/></g><g id="Outline"><path d="M56.265,27.789c.218-1.477-.122-2.984-.977-4.23,.502-.574,.88-1.225,1.127-1.941,1.08-3.119-.582-6.543-3.707-7.632-.339-.118-.686-.204-1.039-.258,.532-2.863-1.096-5.773-3.933-6.763-2.841-.98-5.925,.3-7.272,2.874-.312-.178-.637-.325-.975-.443-1.23-.429-2.506-.426-3.67-.078-.013-.001-.026-.004-.04-.005-.842-1.996-2.727-3.353-4.874-3.528-.521-1.244-1.449-2.26-2.655-2.895-1.375-.724-2.946-.868-4.426-.404-1.479,.462-2.688,1.476-3.406,2.853-.631,1.211-.814,2.577-.534,3.893-.486,.4-.893,.883-1.225,1.414-2.161-2.348-5.39-3.263-8.121-2.026-1.73,.785-2.995,2.298-3.561,4.258-.549,1.901-.37,4.007,.536,5.994l.062,.125c.033,.071,.067,.142,.096,.192,.686,1.329,.897,2.921,.612,4.606-.212,1.269-.246,2.58-.117,3.908-4.308,.832-6.166,1.83-6.166,3.297v4c0,11.665,8.731,21.323,20,22.798v3.202c0,.553,.447,1,1,1h18c.553,0,1-.447,1-1v-3.202c11.269-1.475,20-11.133,20-22.798v-4c0-1.417-1.734-2.396-5.735-3.211Zm-19.379,6.152c-.489-2.247-2.5-3.94-4.886-3.94s-4.397,1.693-4.886,3.94c-1.046-.025-2.067-.055-3.051-.094,.5-4.677,3.897-9.846,7.937-9.846s7.437,5.17,7.937,9.846c-.984,.039-2.006,.069-3.051,.094Zm-2.076,.041c-.916,.012-1.852,.019-2.809,.019s-1.893-.007-2.809-.019c.42-1.15,1.518-1.981,2.809-1.981s2.389,.831,2.809,1.981Zm-17.714-.557c.089-.288,.236-.559,.452-.789,.375-.409,.892-.635,1.453-.635,.999,0,1.822,.739,1.969,1.697-1.366-.079-2.656-.171-3.875-.273Zm-5.083-.543c.063-1.046,.926-1.881,1.988-1.881,.661,0,1.259,.336,1.625,.86-.269,.42-.456,.887-.551,1.377-1.098-.111-2.114-.23-3.062-.356Zm30.013,.869c.125-.984,.958-1.75,1.975-1.75,.553,0,1-.447,1-1,0-1.103,.897-2,2-2s2,.897,2,2c0,.553,.447,1,1,1,.701,0,1.318,.37,1.673,.923-2.659,.343-5.898,.634-9.648,.827Zm11.925-1.154c-.041-.259-.085-.517-.16-.769,.781-.55,1.41-1.277,1.851-2.121,2.746,.547,3.815,1.052,4.199,1.307-.695,.507-2.732,1.077-5.89,1.583Zm-15.119-21.312c.521,.182,1,.476,1.425,.874,.254,.239,.616,.329,.95,.235,.336-.093,.6-.354,.695-.688,.022-.077,.041-.157,.059-.238,.01-.044,.017-.089,.035-.141,.72-2.083,3.004-3.19,5.086-2.472,2.085,.728,3.191,3.014,2.468,5.09-.023,.065-.056,.127-.086,.188l-.06,.124c-.151,.324-.118,.704,.087,.996,.206,.293,.551,.459,.906,.423,.575-.051,1.132,.017,1.654,.198,2.084,.727,3.194,3.01,2.474,5.091-.232,.674-.645,1.262-1.226,1.749-.212,.177-.342,.435-.356,.711-.016,.275,.084,.546,.274,.746,.991,1.038,1.344,2.485,.962,3.829-.078,.114-.138,.242-.164,.387-.003,.019,.003,.036,.001,.055-.369,.894-1.03,1.627-1.905,2.064-.029,.015-.048,.041-.075,.058-.35-.209-.732-.367-1.139-.462-.408-1.775-2.001-3.103-3.898-3.103-1.486,0-2.777,.821-3.466,2.027-.874,.206-1.713,.506-2.505,.911-.036-.096-.073-.191-.111-.286l1.748-5.033,1.253-.845c1.516-1.021,3.276-1.56,5.099-1.56,.043,0,.094,.003,.127,0,.547,0,.993-.439,1-.987,.007-.553-.436-1.006-.987-1.013-.047,0-.094,0-.14,0-1.861,0-3.666,.466-5.289,1.346l2.657-7.653c.182-.521-.095-1.092-.616-1.272-.523-.185-1.093,.095-1.272,.616l-2.655,7.647c-.746-1.735-1.912-3.247-3.423-4.41-.44-.337-1.066-.256-1.403,.183-.336,.438-.255,1.066,.183,1.403,1.478,1.137,2.559,2.676,3.127,4.452l.456,1.427-1.107,3.189c-1.827-2.961-4.574-5.143-7.673-5.143-.822,0-1.615,.169-2.378,.45-.343-.886-.38-1.846-.068-2.74,.493-1.413,1.729-2.421,3.224-2.63,.273-.038,.52-.188,.68-.415,.159-.227,.217-.509,.16-.78-.152-.729-.111-1.451,.115-2.135,.415-1.183,1.337-2.035,2.431-2.432,.121-.02,.232-.063,.335-.124,.744-.197,1.552-.182,2.331,.09Zm-17.26-.808c.399-.248,.573-.739,.417-1.183-.02-.057-.044-.11-.054-.12-.305-.975-.214-2.009,.257-2.912,.47-.901,1.262-1.565,2.23-1.868,.969-.302,1.998-.206,2.896,.266,.901,.475,1.565,1.272,1.855,2.194,.007,.041,.031,.158,.043,.197,.128,.444,.515,.739,1.012,.72,1.689-.103,3.197,.935,3.755,2.452-.956,.696-1.721,1.679-2.142,2.881-.24,.724-.343,1.464-.307,2.212-.845,.263-1.605,.709-2.245,1.291l-.773-2.468,.684-.84c.379-.466,.829-.865,1.337-1.188,.466-.296,.604-.913,.308-1.38-.296-.466-.915-.606-1.38-.308-.625,.397-1.176,.891-1.659,1.449l-1.241-3.96c-.165-.527-.723-.822-1.253-.655-.527,.165-.82,.727-.655,1.253l1.244,3.971c-.619-.161-1.254-.257-1.899-.258h-.002c-.552,0-.999,.446-1,.998,0,.553,.446,1.001,.998,1.002,.538,0,1.069,.078,1.58,.23l1.037,.307,1.219,3.889c-.058,.133-.119,.263-.168,.402-.149,.427-.23,.865-.279,1.305-1.126-1.404-2.449-2.584-3.918-3.48-1.448-.879-2.514-2.086-3.117-3.579-.046-.112-.091-.221-.132-.301-.078-.171-.166-.333-.253-.496,.285-.839,.852-1.557,1.604-2.023Zm-12.673,2.954c.4-1.389,1.275-2.45,2.465-2.99,2.518-1.14,5.67,.379,7.054,3.42,.031,.063,.055,.123,.116,.274,.73,1.808,2.079,3.347,3.896,4.449,1.773,1.082,3.359,2.721,4.536,4.661-.722,.66-1.274,1.48-1.605,2.429-.001,.003-.006,.019-.009,.031-1.405,1.753-2.447,3.942-2.97,6.182-.129-.205-.276-.395-.438-.573-.014-.049-.012-.099-.034-.146l-3.175-6.966c.958-1.477,1.097-3.31,.483-6.119-.117-.539-.654-.883-1.189-.764-.54,.117-.882,.65-.764,1.189,.305,1.399,.359,2.384,.289,3.101l-3.621-7.945c-.229-.503-.823-.726-1.325-.495-.502,.229-.724,.822-.495,1.325l3.613,7.928c-.63-.421-1.341-1.097-2.126-2.214-.316-.451-.941-.562-1.394-.243-.451,.317-.561,.941-.243,1.394,1.536,2.186,3.122,3.356,4.943,3.654l2.281,5.005c-.064-.003-.124-.019-.188-.019-.67,0-1.313,.187-1.888,.498-.744-.925-1.882-1.498-3.112-1.498-1.312,0-2.468,.643-3.198,1.622-.24-.751-.427-1.505-.545-2.258-.229-1.448-.229-2.874,0-4.236,.356-2.114,.078-4.139-.816-5.871l-.059-.12c-.037-.077-.074-.153-.081-.16-.676-1.486-.818-3.101-.401-4.545Zm-.422,16.252c.207,.938,.503,1.873,.875,2.798-2.76-.477-4.547-1-5.191-1.469,.388-.258,1.484-.775,4.316-1.33Zm31.524,28.317v2H24v-2h16Zm-1-2h-14c-11.579,0-21-9.421-21-21v-1.954c1.595,.724,4.01,1.273,6.783,1.686,.087,.024,.177,.038,.268,.038,0,0,0,0,0,0,3.369,.487,7.213,.782,10.703,.96,.049,.007,.097,.021,.146,.021,.021,0,.04-.009,.061-.01,.322,.016,.639,.031,.954,.045,.023,.002,.042,.014,.066,.015h.019c.016,0,.029-.008,.044-.009,1.813,.08,3.493,.13,4.908,.161,.014,0,.025,.008,.039,.008h.009c.011,0,.02-.006,.032-.006,1.948,.041,3.387,.046,3.968,.046s2.021-.005,3.968-.046c.011,0,.02,.006,.032,.006h.009c.014,0,.025-.008,.039-.008,1.415-.03,3.095-.081,4.908-.161,.016,0,.029,.009,.044,.009h.019c.014,0,.025-.008,.039-.009,.018,0,.034,.009,.052,.009,.056,0,.112-.013,.169-.023,3.766-.173,8.061-.479,11.766-1.021,.003,0,.005,.001,.007,0,.005,0,.009-.003,.014-.004,2.835-.415,5.31-.97,6.934-1.707v1.954c0,11.579-9.421,21-21,21Z"/></g></svg>