<?xml version="1.0" encoding="utf-8"?>
<!-- Generator: Adobe Illustrator 26.0.2, SVG Export Plug-In . SVG Version: 6.00 Build 0)  -->
<svg version="1.1" id="Layer_3" xmlns="http://www.w3.org/2000/svg" xmlns:xlink="http://www.w3.org/1999/xlink" x="0px" y="0px"
	 viewBox="0 0 64 64" style="enable-background:new 0 0 64 64;" xml:space="preserve">
<g>
	<path style="fill:#AA2B24;" d="M53,46V2H17c-3.314,0-6,2.686-6,6v44c0,3.314,2.686,6,6,6h36l-1.106-2.211
		C51.306,54.612,51,53.315,51,52s0.306-2.612,0.894-3.789L53,46z"/>
	<path style="fill:#D24034;" d="M17,2c-3.314,0-6,2.686-6,6v34h35c2.209,0,4-1.791,4-4V2H17z"/>
	<rect x="23" y="6" style="fill:#CCCCCC;" width="26" height="26"/>
	<path style="fill:#F2F2F2;" d="M43,29H29c-1.657,0-3-1.343-3-3V12c0-1.657,1.343-3,3-3h14c1.657,0,3,1.343,3,3v14
		C46,27.657,44.657,29,43,29z"/>
	<path style="fill:#E0E0E0;" d="M53,46l-1.106,2.211C51.306,49.388,51,50.685,51,52v0c0,1.315,0.306,2.612,0.894,3.789L53,58H17
		c-3.314,0-6-2.686-6-6v0c0-3.314,2.686-6,6-6H53z"/>
	<path style="fill:#CCCCCC;" d="M53,46l-1.106,2.211C51.306,49.388,51,50.685,51,52v0c0,1.315,0.306,2.612,0.894,3.789L53,58H17
		c-3.314,0-6-2.686-6-6v0c0-3.314,2.686-6,6-6H53z"/>
	<path style="fill:#F2F2F2;" d="M51.243,50H17c-1.105,0-2,0.895-2,2c0,1.105,0.895,2,2,2h34.243C51.084,53.347,51,52.676,51,52
		C51,51.324,51.084,50.653,51.243,50z"/>
	<polygon style="fill:#EEAB46;" points="37,50 37,62 41,58 45,62 45,50 	"/>
	<polygon style="fill:#F3C14F;" points="37,50 37,62 41,58 41,50 	"/>
	<path style="fill:#D24034;" d="M44,18c0-4.418-3.582-8-8-8s-8,3.582-8,8c0,3.878,2.759,7.109,6.421,7.843L36,28l1.579-2.157
		C41.241,25.109,44,21.878,44,18z"/>
	<circle style="fill:#FFFFFF;" cx="36" cy="18" r="4"/>
	<g>
		<path d="M53.895,46.447C53.964,46.309,54,46.155,54,46V2c0-0.553-0.447-1-1-1H17c-3.859,0-7,3.141-7,7v44c0,3.859,3.141,7,7,7h19
			v3c0,0.404,0.243,0.77,0.617,0.924c0.374,0.156,0.803,0.07,1.09-0.217L41,59.414l3.293,3.293C44.484,62.898,44.74,63,45,63
			c0.129,0,0.259-0.024,0.383-0.076C45.757,62.77,46,62.404,46,62v-3h7c0.347,0,0.668-0.18,0.851-0.475s0.199-0.663,0.044-0.973
			l-1.105-2.211C52.272,54.309,52,53.153,52,52s0.272-2.309,0.789-3.342L53.895,46.447z M52,45H20V3h32V45z M12,8
			c0-2.757,2.243-5,5-5h1v42h-1c-1.958,0-3.728,0.81-5,2.111V8z M17,57c-2.757,0-5-2.243-5-5s2.243-5,5-5h34.382L51,47.764
			c-0.199,0.398-0.359,0.814-0.5,1.236H17c-1.654,0-3,1.346-3,3s1.346,3,3,3h19v2H17z M50.059,53H46v-2h4.059
			C50.023,51.332,50,51.666,50,52S50.023,52.668,50.059,53z M36,51v2H17c-0.552,0-1-0.448-1-1s0.448-1,1-1H36z M41.707,57.293
			c-0.391-0.391-1.023-0.391-1.414,0L38,59.586V51h6v8.586L41.707,57.293z M46,57v-2h4.5c0.141,0.422,0.301,0.838,0.5,1.236
			L51.382,57H46z"/>
		<rect x="22" y="35" width="28" height="2"/>
		<rect x="22" y="39" width="24" height="2"/>
		<rect x="48" y="39" width="2" height="2"/>
		<path d="M36,9c-4.963,0-9,4.037-9,9c0,4.141,2.852,7.752,6.836,8.736l1.357,1.854C35.382,28.848,35.681,29,36,29
			s0.618-0.152,0.807-0.409l1.357-1.854C42.148,25.752,45,22.141,45,18C45,13.037,40.963,9,36,9z M37.383,24.862
			c-0.245,0.049-0.463,0.188-0.61,0.39L36,26.307l-0.772-1.055c-0.147-0.201-0.365-0.341-0.61-0.39C31.362,24.21,29,21.324,29,18
			c0-3.859,3.141-7,7-7s7,3.141,7,7C43,21.324,40.638,24.21,37.383,24.862z"/>
		<path d="M36,13c-2.757,0-5,2.243-5,5s2.243,5,5,5s5-2.243,5-5S38.757,13,36,13z M36,21c-1.654,0-3-1.346-3-3s1.346-3,3-3
			s3,1.346,3,3S37.654,21,36,21z"/>
		<path d="M23,33h26c0.553,0,1-0.447,1-1V6c0-0.553-0.447-1-1-1H23c-0.553,0-1,0.447-1,1v26C22,32.553,22.447,33,23,33z M24,7h24v24
			H24V7z"/>
	</g>
</g>
</svg>
