<?xml version="1.0" encoding="UTF-8" standalone="no"?><!DOCTYPE svg PUBLIC "-//W3C//DTD SVG 1.1//EN" "http://www.w3.org/Graphics/SVG/1.1/DTD/svg11.dtd"><svg width="100%" height="100%" viewBox="0 0 16 16" version="1.1" xmlns="http://www.w3.org/2000/svg" xmlns:xlink="http://www.w3.org/1999/xlink" xml:space="preserve" xmlns:serif="http://www.serif.com/" style="fill-rule:evenodd;clip-rule:evenodd;stroke-linejoin:round;stroke-miterlimit:2;"><g id="Icon"><path d="M13.5,7.25l-8.5,-0c-0.414,0 -0.75,0.336 -0.75,0.75c0,0.414 0.336,0.75 0.75,0.75l8.5,-0c0.414,0 0.75,-0.336 0.75,-0.75c0,-0.414 -0.336,-0.75 -0.75,-0.75Z"/><path d="M12.03,11.03l2.5,-2.5c0.293,-0.293 0.293,-0.767 0,-1.06l-2.5,-2.5c-0.292,-0.293 -0.768,-0.293 -1.06,-0c-0.293,0.292 -0.293,0.768 -0,1.06l1.969,1.97c0,-0 -1.969,1.97 -1.969,1.97c-0.293,0.292 -0.293,0.768 -0,1.06c0.292,0.293 0.768,0.293 1.06,0Z"/><path d="M8,13.25l-5,-0c-0.066,-0 -0.13,-0.026 -0.177,-0.073c-0.047,-0.047 -0.073,-0.111 -0.073,-0.177l0,-10c-0,-0.066 0.026,-0.13 0.073,-0.177c0.047,-0.047 0.111,-0.073 0.177,-0.073c0,-0 5,0 5,0c0.414,0 0.75,-0.336 0.75,-0.75c0,-0.414 -0.336,-0.75 -0.75,-0.75c-1.537,0 -3.463,0 -5,-0c-0.464,0 -0.909,0.184 -1.237,0.513c-0.329,0.328 -0.513,0.773 -0.513,1.237c0,2.26 0,7.74 0,10c-0,0.464 0.184,0.909 0.513,1.237c0.328,0.329 0.773,0.513 1.237,0.513l5,-0c0.414,-0 0.75,-0.336 0.75,-0.75c0,-0.414 -0.336,-0.75 -0.75,-0.75Z"/></g></svg>